HIERARCHY
ROOT Hips
{
	OFFSET 0.000000 0.000000 0.000000
	CHANNELS 6 Xposition Yposition Zposition Zrotation Yrotation Xrotation 
	JOINT LowerBack
	{
		OFFSET 0.000000 0.000000 0.000000
		CHANNELS 3 Zrotation Yrotation Xrotation
		JOINT Spine
		{
			OFFSET 0.028270 2.035590 -0.193380
			CHANNELS 3 Zrotation Yrotation Xrotation
			JOINT Spine1
			{
				OFFSET 0.056720 2.048850 -0.042750
				CHANNELS 3 Zrotation Yrotation Xrotation
				JOINT Neck
				{
					OFFSET 0.000000 0.000000 0.000000
					CHANNELS 3 Zrotation Yrotation Xrotation
					JOINT Neck1
					{
						OFFSET -0.054170 1.746240 0.172020
						CHANNELS 3 Zrotation Yrotation Xrotation
						JOINT Head
						{
							OFFSET 0.104070 1.761360 -0.123970
							CHANNELS 3 Zrotation Yrotation Xrotation
							End Site
							{
								OFFSET 0.000000 0.000000 0.000000
							}
						}
					}
				}
				JOINT LeftShoulder
				{
					OFFSET 0.000000 0.000000 0.000000
					CHANNELS 3 Zrotation Yrotation Xrotation
					JOINT LeftArm
					{
						OFFSET 3.362410 1.200890 -0.311210
						CHANNELS 3 Zrotation Yrotation Xrotation
						JOINT LeftForeArm
						{
							OFFSET 4.983000 -0.000000 -0.000000
							CHANNELS 3 Zrotation Yrotation Xrotation
							JOINT LeftHand
							{
								OFFSET 3.483560 -0.000000 -0.000000
								CHANNELS 3 Zrotation Yrotation Xrotation
								JOINT LeftFingerBase
								{
									OFFSET 0.000000 0.000000 0.000000
									CHANNELS 3 Zrotation Yrotation Xrotation
									JOINT LeftHandIndex1
									{
										OFFSET 0.715260 -0.000000 -0.000000
										CHANNELS 3 Zrotation Yrotation Xrotation
										End Site
										{
											OFFSET 0.000000 0.000000 0.000000
										}
									}
								}
								JOINT LThumb
								{
									OFFSET 0.000000 0.000000 0.000000
									CHANNELS 3 Zrotation Yrotation Xrotation
									End Site
									{
										OFFSET 0.000000 0.000000 0.000000
									}
								}
							}
						}
					}
				}
				JOINT RightShoulder
				{
					OFFSET 0.000000 0.000000 0.000000
					CHANNELS 3 Zrotation Yrotation Xrotation
					JOINT RightArm
					{
						OFFSET -3.136600 1.374050 -0.404650
						CHANNELS 3 Zrotation Yrotation Xrotation
						JOINT RightForeArm
						{
							OFFSET -5.241900 -0.000000 -0.000000
							CHANNELS 3 Zrotation Yrotation Xrotation
							JOINT RightHand
							{
								OFFSET -3.444170 -0.000000 -0.000000
								CHANNELS 3 Zrotation Yrotation Xrotation
								JOINT RightFingerBase
								{
									OFFSET 0.000000 0.000000 0.000000
									CHANNELS 3 Zrotation Yrotation Xrotation
									JOINT RightHandIndex1
									{
										OFFSET -0.622530 -0.000000 -0.000000
										CHANNELS 3 Zrotation Yrotation Xrotation
										End Site
										{
											OFFSET 0.000000 0.000000 0.000000
										}
									}
								}
								JOINT RThumb
								{
									OFFSET 0.000000 0.000000 0.000000
									CHANNELS 3 Zrotation Yrotation Xrotation
									End Site
									{
										OFFSET 0.000000 0.000000 0.000000
									}
								}
							}
						}
					}
				}
			}
		}
	}
}
}
MOTION
Frames: 6
Frame Time: 0.008333
4.054590 16.669213 1.222906 162.997770 -84.013014 -152.958540 -10.953861 1.920506 -7.799347 -3.063416 2.578866 -4.723242 -5.541903 2.397458 -0.163680 8.252562 -1.721071 -8.604392 -2.177347 -0.161894 -0.273321 0.000000 0.000000 0.000000 -5.177720 24.442166 2.550321 -53.789286 27.043901 -18.566787 -4.949142 -2.152051 -0.004648 5.216767 3.238145 0.153406 -0.143672 -0.044641 -0.000000 0.000000 0.000000 0.000000 0.000000 0.000000 0.000000 7.076591 6.775739 -0.726200 53.442675 45.644778 23.499100 0.735587 71.601154 -0.016052 -1.781864 7.799255 -0.127502 -0.015560 -0.523212 -0.000000 0.000000 0.000000 0.000000 0.000000 0.000000 0.000000 
3.891974 16.638396 1.206354 159.672196 -83.874045 -149.857846 -11.381236 1.767118 -7.598262 -3.159981 2.468960 -4.700392 -5.627143 2.296289 -0.230343 8.529809 -1.516399 -8.573473 -2.278730 -0.169889 -0.277059 0.000000 0.000000 0.000000 -5.370884 24.159682 2.613107 -54.176430 26.170793 -17.964749 -4.946502 -2.333625 -0.004897 4.895341 3.338554 0.148405 -0.137510 -0.043404 -0.000000 0.000000 0.000000 0.000000 0.000000 0.000000 0.000000 7.739160 7.094522 -0.626638 54.502697 44.713672 24.345410 0.779880 71.249107 -0.014755 -1.765837 7.807758 -0.126837 -0.008838 -0.519624 -0.000000 0.000000 0.000000 0.000000 0.000000 0.000000 0.000000 
3.735300 16.605984 1.190959 156.551055 -83.719916 -146.968543 -11.775906 1.620551 -7.351448 -3.248896 2.362132 -4.672025 -5.710674 2.198333 -0.316350 8.778499 -1.312591 -8.539687 -2.389526 -0.178619 -0.281007 0.000000 0.000000 0.000000 -5.586968 23.781678 2.682506 -54.599956 25.239251 -17.253725 -4.938754 -2.552221 -0.004909 4.621068 3.381371 0.141809 -0.130884 -0.042154 -0.000000 0.000000 0.000000 0.000000 0.000000 0.000000 0.000000 8.416128 7.417979 -0.518018 55.531563 43.728276 25.154402 0.820392 70.797198 -0.013564 -1.759083 7.843608 -0.127276 -0.002196 -0.515989 -0.000000 0.000000 0.000000 0.000000 0.000000 0.000000 0.000000 
3.584152 16.572312 1.176263 153.469730 -83.556367 -144.126922 -12.157244 1.478430 -7.062010 -3.334708 2.257585 -4.637885 -5.793041 2.102743 -0.416699 9.004599 -1.117245 -8.503303 -2.509528 -0.188050 -0.285459 0.000000 0.000000 0.000000 -5.797883 23.313132 2.758478 -55.052220 24.222376 -16.435973 -4.923429 -2.765595 -0.004673 4.424328 3.361748 0.134819 -0.123616 -0.040745 -0.000000 0.000000 0.000000 0.000000 0.000000 0.000000 0.000000 9.116731 7.732010 -0.400695 56.526622 42.693347 25.920899 0.858811 70.234208 -0.012442 -1.756020 7.915753 -0.128521 0.004145 -0.512359 -0.000000 0.000000 0.000000 0.000000 0.000000 0.000000 0.000000 
3.438052 16.538053 1.163313 150.638009 -83.379376 -141.540785 -12.497883 1.348902 -6.741741 -3.411896 2.160923 -4.601812 -5.875214 2.014132 -0.536216 9.201944 -0.922018 -8.456115 -2.638411 -0.198286 -0.287541 0.000000 0.000000 0.000000 -6.022736 22.739166 2.836673 -55.518938 23.153383 -15.493901 -4.901274 -2.987878 -0.004239 4.312037 3.295591 0.128631 -0.115691 -0.039269 -0.000000 0.000000 0.000000 0.000000 0.000000 0.000000 0.000000 9.830071 8.042437 -0.274896 57.485187 41.591349 26.637120 0.895678 69.552057 -0.011340 -1.748273 8.027710 -0.129974 0.009967 -0.508514 -0.000000 0.000000 0.000000 0.000000 0.000000 0.000000 0.000000 
3.296232 16.503923 1.151843 147.980335 -83.191733 -139.132434 -12.807918 1.230863 -6.398758 -3.483054 2.072057 -4.564073 -5.957803 1.932255 -0.668139 9.376752 -0.733438 -8.398890 -2.774915 -0.209201 -0.287465 0.000000 0.000000 0.000000 -6.242798 22.076470 2.915439 -55.990052 22.003258 -14.424978 -4.870879 -3.184399 -0.003643 4.299108 3.188693 0.123849 -0.106998 -0.037538 -0.000000 0.000000 0.000000 0.000000 0.000000 0.000000 0.000000 10.560037 8.335952 -0.142941 58.412811 40.426648 27.301096 0.932820 68.733673 -0.010209 -1.729632 8.181451 -0.131234 0.015086 -0.504287 -0.000000 0.000000 0.000000 0.000000 0.000000 0.000000 0.000000 
